<?xml version="1.0" ?><!-- Uploaded to: SVG Repo, www.svgrepo.com, Generator: SVG Repo Mixer Tools -->
<svg width="800px" height="800px" viewBox="0 0 100 100" data-name="Layer 1" id="Layer_1" xmlns="http://www.w3.org/2000/svg"><defs><style>
      .cls-1 {
        fill: none;
        stroke: #231f20;
        stroke-miterlimit: 10;
        stroke-width: 2px;
      }

      .cls-2 {
        fill: #231f20;
      }
    </style></defs><path class="cls-2" d="M72.48,42.88c-6.65,0-7.43,.78-7.43,7.43,0-6.65-.78-7.43-7.43-7.43,6.65,0,7.43-.78,7.43-7.43,0,6.65,.78,7.43,7.43,7.43Z"/><path class="cls-2" d="M72.66,23.64c-9.66,0-10.79,1.13-10.79,10.79,0-9.66-1.13-10.79-10.79-10.79,9.66,0,10.79-1.13,10.79-10.79,0,9.66,1.13,10.79,10.79,10.79Z"/><path class="cls-2" d="M80.88,48.89c-5.06,0-5.65,.59-5.65,5.65,0-5.06-.59-5.65-5.65-5.65,5.06,0,5.65-.59,5.65-5.65,0,5.06,.59,5.65,5.65,5.65Z"/><path class="cls-2" d="M73.12,32.81c-1.3,0-1.45,.15-1.45,1.45,0-1.3-.15-1.45-1.45-1.45,1.3,0,1.45-.15,1.45-1.45,0,1.3,.15,1.45,1.45,1.45Z"/><path class="cls-1" d="M22.27,52.6c.33-16.44,13.76-29.67,30.28-29.67s30.29,13.56,30.29,30.29-13.56,30.29-30.29,30.29-29.85-13.13-30.28-29.49"/><path class="cls-1" d="M64.77,62.81c-2.84,3.62-7.26,5.94-12.22,5.94-8.57,0-15.53-6.95-15.53-15.53s6.95-15.53,15.53-15.53,15.53,6.95,15.53,15.53c0,3.2-.97,6.17-2.62,8.64"/></svg>